<svg xmlns="http://www.w3.org/2000/svg" width="495" height="195" viewBox="0 0 495 195" role="img" aria-label="2,270 contributions on GitHub in 2026">
  <rect x="0.5" y="0.5" width="494" height="194" rx="4.5" fill="#0D1117"/>
  <g font-family="'Segoe UI', Ubuntu, 'Helvetica Neue', Sans-Serif">
    <text x="25" y="34" fill="#58A6FF" font-size="18" font-weight="700">2026 on GitHub</text>
    <text x="25" y="84" fill="#FEFEFE" font-size="36" font-weight="700">2,270</text>
    <text x="25" y="102" fill="#9E9E9E" font-size="12">contributions this year</text>
    <rect x="25" y="112" width="112" height="22" rx="11" fill="#58A6FF" fill-opacity="0.15"/>
    <text x="81" y="127" fill="#58A6FF" font-size="12" font-weight="700" text-anchor="middle">7.1× vs 2025</text>
    <text x="250" y="72" fill="#FEFEFE" font-size="16" font-weight="700">135</text>
    <text x="250" y="88" fill="#9E9E9E" font-size="11">Active days</text>
    <text x="375" y="72" fill="#FEFEFE" font-size="16" font-weight="700">36 days</text>
    <text x="375" y="88" fill="#9E9E9E" font-size="11">Longest streak</text>
    <text x="250" y="116" fill="#FEFEFE" font-size="16" font-weight="700">185 on Sep 27</text>
    <text x="250" y="132" fill="#9E9E9E" font-size="11">Best day</text>
    <text x="375" y="116" fill="#FEFEFE" font-size="16" font-weight="700">Sep (826)</text>
    <text x="375" y="132" fill="#9E9E9E" font-size="11">Busiest month</text>
  </g>
  <rect x="25.00" y="178.50" width="9.13" height="1.50" rx="1" fill="#58A6FF" fill-opacity="0.35"/><rect x="36.13" y="178.50" width="9.13" height="1.50" rx="1" fill="#58A6FF" fill-opacity="0.35"/><rect x="47.25" y="178.50" width="9.13" height="1.50" rx="1" fill="#58A6FF" fill-opacity="0.35"/><rect x="58.38" y="178.50" width="9.13" height="1.50" rx="1" fill="#58A6FF" fill-opacity="0.35"/><rect x="69.50" y="178.50" width="9.13" height="1.50" rx="1" fill="#58A6FF" fill-opacity="0.35"/><rect x="80.63" y="178.50" width="9.13" height="1.50" rx="1" fill="#58A6FF" fill-opacity="0.35"/><rect x="91.75" y="178.50" width="9.13" height="1.50" rx="1" fill="#58A6FF" fill-opacity="0.35"/><rect x="102.88" y="178.50" width="9.13" height="1.50" rx="1" fill="#58A6FF" fill-opacity="0.35"/><rect x="114.00" y="176.47" width="9.13" height="3.53" rx="1" fill="#58A6FF" fill-opacity="0.43"/><rect x="125.13" y="178.21" width="9.13" height="1.79" rx="1" fill="#58A6FF" fill-opacity="0.39"/><rect x="136.25" y="178.31" width="9.13" height="1.69" rx="1" fill="#58A6FF" fill-opacity="0.39"/><rect x="147.38" y="173.22" width="9.13" height="6.78" rx="1" fill="#58A6FF" fill-opacity="0.50"/><rect x="158.50" y="174.82" width="9.13" height="5.18" rx="1" fill="#58A6FF" fill-opacity="0.46"/><rect x="169.63" y="174.92" width="9.13" height="5.08" rx="1" fill="#58A6FF" fill-opacity="0.46"/><rect x="180.75" y="178.50" width="9.13" height="1.50" rx="1" fill="#58A6FF" fill-opacity="0.36"/><rect x="191.88" y="175.79" width="9.13" height="4.21" rx="1" fill="#58A6FF" fill-opacity="0.44"/><rect x="203.00" y="176.15" width="9.13" height="3.85" rx="1" fill="#58A6FF" fill-opacity="0.43"/><rect x="214.13" y="173.13" width="9.13" height="6.87" rx="1" fill="#58A6FF" fill-opacity="0.50"/><rect x="225.25" y="178.12" width="9.13" height="1.88" rx="1" fill="#58A6FF" fill-opacity="0.39"/><rect x="236.38" y="177.30" width="9.13" height="2.70" rx="1" fill="#58A6FF" fill-opacity="0.41"/><rect x="247.50" y="178.50" width="9.13" height="1.50" rx="1" fill="#58A6FF" fill-opacity="0.35"/><rect x="258.63" y="178.50" width="9.13" height="1.50" rx="1" fill="#58A6FF" fill-opacity="0.38"/><rect x="269.75" y="178.50" width="9.13" height="1.50" rx="1" fill="#58A6FF" fill-opacity="0.36"/><rect x="280.88" y="177.44" width="9.13" height="2.56" rx="1" fill="#58A6FF" fill-opacity="0.41"/><rect x="292.00" y="174.37" width="9.13" height="5.63" rx="1" fill="#58A6FF" fill-opacity="0.47"/><rect x="303.13" y="178.50" width="9.13" height="1.50" rx="1" fill="#58A6FF" fill-opacity="0.35"/><rect x="314.25" y="178.50" width="9.13" height="1.50" rx="1" fill="#58A6FF" fill-opacity="0.35"/><rect x="325.38" y="178.50" width="9.13" height="1.50" rx="1" fill="#58A6FF" fill-opacity="0.36"/><rect x="336.50" y="178.12" width="9.13" height="1.88" rx="1" fill="#58A6FF" fill-opacity="0.39"/><rect x="347.63" y="177.85" width="9.13" height="2.15" rx="1" fill="#58A6FF" fill-opacity="0.40"/><rect x="358.75" y="178.50" width="9.13" height="1.50" rx="1" fill="#58A6FF" fill-opacity="0.36"/><rect x="369.88" y="178.44" width="9.13" height="1.56" rx="1" fill="#58A6FF" fill-opacity="0.38"/><rect x="381.00" y="178.50" width="9.13" height="1.50" rx="1" fill="#58A6FF" fill-opacity="0.36"/><rect x="392.13" y="176.89" width="9.13" height="3.11" rx="1" fill="#58A6FF" fill-opacity="0.42"/><rect x="403.25" y="178.50" width="9.13" height="1.50" rx="1" fill="#58A6FF" fill-opacity="0.36"/><rect x="414.38" y="178.50" width="9.13" height="1.50" rx="1" fill="#58A6FF" fill-opacity="0.37"/><rect x="425.50" y="178.50" width="9.13" height="1.50" rx="1" fill="#58A6FF" fill-opacity="0.35"/><rect x="436.63" y="178.50" width="9.13" height="1.50" rx="1" fill="#58A6FF" fill-opacity="0.37"/><rect x="447.75" y="172.99" width="9.13" height="7.01" rx="1" fill="#58A6FF" fill-opacity="0.50"/><rect x="458.88" y="150.00" width="9.13" height="30.00" rx="1" fill="#58A6FF" fill-opacity="1.00"/>
</svg>
